# xmcd
#
# Track frame offsets: 
#        300
#        29466
#        53195
#        85842
#        126198
#        163318
#        185300
#        218762
#        246781
#        267487
#        292637
#        319953
#
# Disc length: 4548 seconds
#
# Revision: 4
# Processed by: cddbd v1.5.2PL0 Copyright (c) Steve Scherf et al.
# Submitted via: ExactAudioCopy v1.3
#
DISCID=ae11c00c
DTITLE=Various Artist - The Future Sounds Of Jazz Vol. 9
DYEAR=2003
DGENRE=Jazz
TTITLE0=Hird feat. Yukimi Nagano - Keep You Kimi
TTITLE1=Season feat. Ernesto - Juice
TTITLE2=Stateless feat. Bless - Leave Me Now
TTITLE3=Foremost Poets - Open Season (Main Mix)
TTITLE4=Joseph Malik - Futuristica (Grand Unify Vox Remix)
TTITLE5=Triplane - Something To Get Excited About
TTITLE6=Alexander Kowalski - Along
TTITLE7=Yellowtail - Moa
TTITLE8=Dntel - Anywhere Anyone
TTITLE9=Monassa - Days and Nights
TTITLE10=Julius Kammerl - Venue
TTITLE11=Savath and Savalas - Folk Song For Cello
EXTD=YEAR: 2003
EXTT0=
EXTT1=
EXTT2=
EXTT3=
EXTT4=
EXTT5=
EXTT6=
EXTT7=
EXTT8=
EXTT9=
EXTT10=
EXTT11=
PLAYORDER=
